<svg id="svg" version="1.1" xmlns="http://www.w3.org/2000/svg" xmlns:xlink="http://www.w3.org/1999/xlink" width="125" height="125" viewBox="0, 0, 400,400"><g id="svgg"><path id="path0" d="M203.600 200.800 L 203.600 238.800 256.000 238.800 L 308.400 238.800 308.400 240.000 C 308.400 240.660,308.220 241.200,308.000 241.200 C 307.780 241.200,307.600 241.819,307.600 242.576 C 307.600 243.333,307.420 244.064,307.200 244.200 C 306.980 244.336,306.800 245.067,306.800 245.824 C 306.800 246.581,306.620 247.200,306.400 247.200 C 306.180 247.200,306.000 247.740,306.000 248.400 C 306.000 249.060,305.820 249.600,305.600 249.600 C 305.380 249.600,305.200 250.140,305.200 250.800 C 305.200 251.460,305.020 252.000,304.800 252.000 C 304.580 252.000,304.400 252.540,304.400 253.200 C 304.400 253.860,304.220 254.400,304.000 254.400 C 303.780 254.400,303.600 254.940,303.600 255.600 C 303.600 256.260,303.420 256.800,303.200 256.800 C 302.980 256.800,302.800 257.160,302.800 257.600 C 302.800 258.040,302.620 258.400,302.400 258.400 C 302.180 258.400,302.000 258.760,302.000 259.200 C 302.000 259.640,301.820 260.000,301.600 260.000 C 301.380 260.000,301.200 260.360,301.200 260.800 C 301.200 261.240,301.020 261.600,300.800 261.600 C 300.580 261.600,300.396 261.915,300.391 262.300 C 300.386 262.685,300.030 263.450,299.600 264.000 C 299.170 264.550,298.814 265.326,298.809 265.724 C 298.804 266.122,298.620 266.336,298.400 266.200 C 298.180 266.064,298.000 266.236,298.000 266.582 C 298.000 267.312,297.300 268.618,296.300 269.755 C 295.915 270.193,295.600 270.787,295.600 271.075 C 295.600 271.364,295.442 271.600,295.249 271.600 C 295.055 271.600,294.673 272.140,294.400 272.800 C 294.127 273.460,293.757 274.000,293.578 274.000 C 293.400 274.000,293.153 274.315,293.029 274.700 C 292.905 275.085,292.263 276.030,291.603 276.800 C 290.942 277.570,290.401 278.338,290.401 278.507 C 290.400 278.676,289.275 279.964,287.900 281.369 C 286.525 282.774,284.463 284.886,283.319 286.062 C 280.185 289.281,277.351 291.884,276.110 292.683 C 275.500 293.077,274.587 293.804,274.082 294.299 C 273.577 294.795,273.037 295.203,272.882 295.206 C 272.727 295.210,271.972 295.766,271.205 296.442 L 269.810 297.671 271.242 298.935 C 272.030 299.631,274.367 301.503,276.437 303.097 C 284.437 309.255,293.862 316.525,295.200 317.570 C 296.571 318.641,310.462 329.385,315.600 333.349 C 321.955 338.252,323.298 339.288,328.299 343.140 L 333.599 347.222 339.199 341.643 C 342.280 338.574,344.800 335.962,344.800 335.836 C 344.800 335.510,345.942 334.154,347.900 332.156 C 348.835 331.202,349.600 330.258,349.600 330.059 C 349.600 329.859,350.320 328.955,351.200 328.048 C 352.080 327.141,352.800 326.221,352.800 326.003 C 352.800 325.785,353.340 325.091,354.000 324.460 C 354.660 323.829,355.200 323.123,355.200 322.890 C 355.200 322.657,355.337 322.407,355.505 322.333 C 356.027 322.105,358.800 318.026,358.800 317.487 C 358.800 317.206,359.160 316.717,359.600 316.400 C 360.040 316.083,360.400 315.503,360.400 315.112 C 360.400 314.720,360.580 314.400,360.800 314.400 C 361.020 314.400,361.200 314.164,361.200 313.875 C 361.200 313.587,361.560 312.964,362.000 312.492 C 362.440 312.020,362.800 311.422,362.800 311.164 C 362.800 310.905,363.129 310.403,363.530 310.047 C 363.932 309.691,364.516 308.815,364.828 308.100 C 365.140 307.385,365.531 306.800,365.698 306.800 C 365.864 306.800,366.000 306.440,366.000 306.000 C 366.000 305.560,366.180 305.200,366.400 305.200 C 366.620 305.200,366.800 304.930,366.800 304.600 C 366.800 304.270,366.946 304.000,367.125 304.000 C 367.304 304.000,367.698 303.370,368.000 302.600 C 368.302 301.830,368.696 301.200,368.875 301.200 C 369.054 301.200,369.200 300.840,369.200 300.400 C 369.200 299.960,369.380 299.600,369.600 299.600 C 369.820 299.600,370.000 299.240,370.000 298.800 C 370.000 298.360,370.180 298.000,370.400 298.000 C 370.620 298.000,370.800 297.640,370.800 297.200 C 370.800 296.760,370.980 296.400,371.200 296.400 C 371.420 296.400,371.600 296.128,371.600 295.795 C 371.600 295.462,371.774 294.877,371.988 294.495 C 373.201 292.322,375.200 287.556,375.200 286.838 C 375.200 286.377,375.380 286.000,375.600 286.000 C 375.820 286.000,376.000 285.550,376.000 285.000 C 376.000 284.450,376.180 284.000,376.400 284.000 C 376.620 284.000,376.800 283.561,376.800 283.024 C 376.800 282.487,376.980 281.936,377.200 281.800 C 377.420 281.664,377.600 281.203,377.600 280.776 C 377.600 280.349,377.780 280.000,378.000 280.000 C 378.220 280.000,378.400 279.460,378.400 278.800 C 378.400 278.140,378.580 277.600,378.800 277.600 C 379.020 277.600,379.200 277.060,379.200 276.400 C 379.200 275.740,379.380 275.200,379.600 275.200 C 379.820 275.200,380.000 274.750,380.000 274.200 C 380.000 273.650,380.180 273.200,380.400 273.200 C 380.620 273.200,380.800 272.660,380.800 272.000 C 380.800 271.340,380.980 270.800,381.200 270.800 C 381.420 270.800,381.600 270.260,381.600 269.600 C 381.600 268.940,381.780 268.400,382.000 268.400 C 382.220 268.400,382.400 267.680,382.400 266.800 C 382.400 265.920,382.580 265.200,382.800 265.200 C 383.020 265.200,383.200 264.660,383.200 264.000 C 383.200 263.340,383.380 262.800,383.600 262.800 C 383.820 262.800,384.000 262.080,384.000 261.200 C 384.000 260.320,384.180 259.600,384.400 259.600 C 384.620 259.600,384.800 258.880,384.800 258.000 C 384.800 257.120,384.980 256.400,385.200 256.400 C 385.420 256.400,385.600 255.590,385.600 254.600 C 385.600 253.610,385.762 252.800,385.960 252.800 C 386.307 252.800,386.577 251.337,387.050 246.900 C 387.173 245.745,387.437 244.800,387.637 244.800 C 387.837 244.800,388.000 243.821,388.000 242.624 C 388.000 241.427,388.180 240.336,388.400 240.200 C 388.620 240.064,388.800 238.804,388.800 237.400 C 388.800 235.996,388.980 234.736,389.200 234.600 C 389.420 234.464,389.600 232.844,389.600 231.000 C 389.600 229.156,389.759 227.549,389.954 227.429 C 390.148 227.309,390.336 225.183,390.371 222.705 C 390.406 220.227,390.617 217.570,390.840 216.800 C 391.324 215.126,391.045 195.196,390.425 187.200 C 390.195 184.230,389.902 180.225,389.774 178.300 C 389.646 176.375,389.374 174.800,389.171 174.800 C 388.967 174.800,388.800 173.540,388.800 172.000 C 388.800 170.400,388.629 169.200,388.400 169.200 C 388.178 169.200,388.000 168.133,388.000 166.800 C 388.000 165.467,387.822 164.400,387.600 164.400 C 387.380 164.400,387.200 164.040,387.200 163.600 C 387.200 162.802,386.933 162.800,295.400 162.800 L 203.600 162.800 203.600 200.800 " stroke="none" fill="#4484f3" fill-rule="evenodd"></path><path id="path1" d="M95.200 237.495 C 94.870 237.623,93.686 238.464,92.570 239.364 C 91.453 240.264,89.940 241.450,89.206 242.000 C 88.473 242.550,86.842 243.810,85.582 244.800 C 84.323 245.790,81.639 247.860,79.619 249.400 C 77.598 250.940,75.553 252.505,75.073 252.877 C 74.147 253.596,69.416 257.308,68.392 258.119 C 68.058 258.383,66.348 259.691,64.592 261.025 C 58.863 265.377,54.204 268.967,54.000 269.187 C 53.890 269.305,52.720 270.210,51.400 271.197 C 50.080 272.184,47.636 274.074,45.969 275.396 C 44.301 276.718,42.336 278.250,41.602 278.800 C 40.868 279.350,38.115 281.465,35.485 283.500 C 32.855 285.535,30.545 287.200,30.352 287.200 C 30.158 287.200,30.000 287.560,30.000 288.000 C 30.000 288.440,30.146 288.800,30.325 288.800 C 30.504 288.800,30.898 289.430,31.200 290.200 C 31.502 290.970,31.896 291.600,32.075 291.600 C 32.254 291.600,32.400 291.960,32.400 292.400 C 32.400 292.840,32.580 293.200,32.800 293.200 C 33.020 293.200,33.200 293.560,33.200 294.000 C 33.200 294.440,33.380 294.800,33.600 294.800 C 33.820 294.800,34.000 295.036,34.000 295.325 C 34.000 295.613,34.360 296.236,34.800 296.708 C 35.240 297.180,35.600 297.844,35.600 298.183 C 35.600 298.522,35.780 298.800,36.000 298.800 C 36.220 298.800,36.400 299.120,36.400 299.512 C 36.400 299.903,36.760 300.483,37.200 300.800 C 37.640 301.117,38.000 301.697,38.000 302.088 C 38.000 302.480,38.180 302.800,38.400 302.800 C 38.620 302.800,38.800 303.070,38.800 303.400 C 38.800 303.730,38.980 304.000,39.200 304.000 C 39.420 304.000,39.600 304.270,39.600 304.600 C 39.600 304.930,39.780 305.200,40.000 305.200 C 40.220 305.200,40.400 305.470,40.400 305.800 C 40.400 306.130,40.580 306.400,40.800 306.400 C 41.020 306.400,41.200 306.670,41.200 307.000 C 41.200 307.330,41.380 307.600,41.600 307.600 C 41.820 307.600,42.000 307.842,42.000 308.139 C 42.000 308.435,42.360 309.093,42.800 309.600 C 43.240 310.107,43.600 310.667,43.600 310.843 C 43.600 311.019,44.050 311.614,44.600 312.164 C 45.150 312.714,45.600 313.353,45.600 313.585 C 45.600 313.817,46.140 314.572,46.800 315.263 C 47.460 315.954,48.000 316.690,48.000 316.899 C 48.000 317.108,48.540 317.783,49.200 318.400 C 49.860 319.017,50.400 319.697,50.400 319.912 C 50.400 320.127,51.120 321.045,52.000 321.952 C 52.880 322.859,53.600 323.690,53.600 323.798 C 53.600 323.906,54.680 325.092,56.000 326.432 C 57.320 327.773,58.400 329.039,58.400 329.246 C 58.400 330.317,71.397 343.145,73.721 344.368 C 74.314 344.680,74.803 345.040,74.806 345.168 C 74.819 345.621,77.021 347.848,78.400 348.801 C 79.170 349.334,80.277 350.271,80.860 350.885 C 81.444 351.498,82.081 352.000,82.276 352.000 C 82.472 352.000,83.428 352.720,84.400 353.600 C 85.372 354.480,86.318 355.200,86.502 355.200 C 86.686 355.200,87.286 355.650,87.836 356.200 C 88.386 356.750,88.981 357.200,89.157 357.200 C 89.333 357.200,89.893 357.560,90.400 358.000 C 90.907 358.440,91.525 358.800,91.773 358.800 C 92.021 358.800,92.483 359.160,92.800 359.600 C 93.117 360.040,93.657 360.400,94.000 360.400 C 94.343 360.400,94.883 360.760,95.200 361.200 C 95.517 361.640,96.057 362.000,96.400 362.000 C 96.743 362.000,97.283 362.360,97.600 362.800 C 97.917 363.240,98.457 363.600,98.800 363.600 C 99.143 363.600,99.683 363.960,100.000 364.400 C 100.317 364.840,100.897 365.200,101.288 365.200 C 101.680 365.200,102.000 365.380,102.000 365.600 C 102.000 365.820,102.320 366.000,102.712 366.000 C 103.103 366.000,103.683 366.360,104.000 366.800 C 104.317 367.240,104.897 367.600,105.288 367.600 C 105.680 367.600,106.000 367.780,106.000 368.000 C 106.000 368.220,106.360 368.400,106.800 368.400 C 107.240 368.400,107.600 368.580,107.600 368.800 C 107.600 369.020,107.793 369.200,108.028 369.200 C 108.263 369.200,109.208 369.706,110.128 370.324 C 112.366 371.830,119.276 375.200,120.124 375.200 C 120.496 375.200,120.800 375.380,120.800 375.600 C 120.800 375.820,121.160 376.000,121.600 376.000 C 122.040 376.000,122.400 376.180,122.400 376.400 C 122.400 376.620,122.724 376.800,123.120 376.800 C 124.014 376.800,125.993 377.694,125.997 378.100 C 125.999 378.265,126.349 378.400,126.776 378.400 C 127.203 378.400,127.664 378.580,127.800 378.800 C 127.936 379.020,128.487 379.200,129.024 379.200 C 129.561 379.200,130.000 379.380,130.000 379.600 C 130.000 379.820,130.360 380.000,130.800 380.000 C 131.240 380.000,131.600 380.180,131.600 380.400 C 131.600 380.620,132.140 380.800,132.800 380.800 C 133.460 380.800,134.000 380.980,134.000 381.200 C 134.000 381.420,134.349 381.600,134.776 381.600 C 135.203 381.600,135.664 381.780,135.800 382.000 C 135.936 382.220,136.487 382.400,137.024 382.400 C 137.561 382.400,138.000 382.580,138.000 382.800 C 138.000 383.020,138.540 383.200,139.200 383.200 C 139.860 383.200,140.400 383.380,140.400 383.600 C 140.400 383.820,140.940 384.000,141.600 384.000 C 142.260 384.000,142.800 384.180,142.800 384.400 C 142.800 384.620,143.239 384.800,143.776 384.800 C 144.313 384.800,144.864 384.980,145.000 385.200 C 145.136 385.420,145.766 385.600,146.400 385.600 C 147.034 385.600,147.664 385.780,147.800 386.000 C 147.936 386.220,148.577 386.400,149.224 386.400 C 149.871 386.400,150.400 386.580,150.400 386.800 C 150.400 387.020,151.019 387.200,151.776 387.200 C 152.533 387.200,153.264 387.380,153.400 387.600 C 153.536 387.820,154.166 388.000,154.800 388.000 C 155.434 388.000,156.064 388.180,156.200 388.400 C 156.336 388.620,157.146 388.800,158.000 388.800 C 158.854 388.800,159.652 388.961,159.774 389.158 C 159.895 389.355,160.671 389.615,161.497 389.737 C 162.324 389.859,163.990 390.162,165.200 390.410 C 166.410 390.658,169.425 391.059,171.900 391.302 C 174.375 391.544,176.400 391.891,176.400 392.071 C 176.400 392.252,177.750 392.400,179.400 392.400 C 181.133 392.400,182.400 392.569,182.400 392.800 C 182.400 393.046,184.400 393.200,187.600 393.200 C 190.800 393.200,192.800 393.354,192.800 393.600 C 192.800 393.858,197.067 394.000,204.800 394.000 C 212.533 394.000,216.800 393.858,216.800 393.600 C 216.800 393.353,218.867 393.200,222.200 393.200 C 225.533 393.200,227.600 393.047,227.600 392.800 C 227.600 392.567,228.933 392.400,230.800 392.400 C 232.560 392.400,234.000 392.247,234.000 392.060 C 234.000 391.873,236.000 391.599,238.445 391.450 C 240.889 391.302,243.217 391.005,243.618 390.790 C 244.019 390.576,245.069 390.400,245.950 390.400 C 246.832 390.400,247.664 390.220,247.800 390.000 C 247.936 389.780,248.836 389.600,249.800 389.600 C 250.764 389.600,251.664 389.420,251.800 389.200 C 251.936 388.980,252.656 388.800,253.400 388.800 C 254.144 388.800,254.864 388.620,255.000 388.400 C 255.136 388.180,255.856 388.000,256.600 388.000 C 257.344 388.000,258.064 387.820,258.200 387.600 C 258.336 387.380,259.067 387.200,259.824 387.200 C 260.581 387.200,261.200 387.020,261.200 386.800 C 261.200 386.580,261.819 386.400,262.576 386.400 C 263.333 386.400,264.064 386.220,264.200 386.000 C 264.336 385.780,264.977 385.600,265.624 385.600 C 266.271 385.600,266.800 385.420,266.800 385.200 C 266.800 384.980,267.340 384.800,268.000 384.800 C 268.660 384.800,269.200 384.620,269.200 384.400 C 269.200 384.180,269.740 384.000,270.400 384.000 C 271.060 384.000,271.600 383.820,271.600 383.600 C 271.600 383.380,272.039 383.200,272.576 383.200 C 273.113 383.200,273.664 383.020,273.800 382.800 C 273.936 382.580,274.487 382.400,275.024 382.400 C 275.561 382.400,276.000 382.220,276.000 382.000 C 276.000 381.780,276.439 381.600,276.976 381.600 C 277.513 381.600,278.064 381.420,278.200 381.200 C 278.336 380.980,278.797 380.800,279.224 380.800 C 279.651 380.800,280.000 380.620,280.000 380.400 C 280.000 380.180,280.439 380.000,280.976 380.000 C 281.513 380.000,282.064 379.820,282.200 379.600 C 282.336 379.380,282.797 379.200,283.224 379.200 C 283.651 379.200,284.000 379.020,284.000 378.800 C 284.000 378.580,284.360 378.400,284.800 378.400 C 285.240 378.400,285.600 378.220,285.600 378.000 C 285.600 377.780,286.039 377.600,286.576 377.600 C 287.113 377.600,287.664 377.420,287.800 377.200 C 287.936 376.980,288.397 376.800,288.824 376.800 C 289.251 376.800,289.600 376.662,289.600 376.494 C 289.600 376.123,292.569 374.800,293.403 374.800 C 293.731 374.800,294.000 374.620,294.000 374.400 C 294.000 374.180,294.360 374.000,294.800 374.000 C 295.240 374.000,295.600 373.820,295.600 373.600 C 295.600 373.380,295.960 373.200,296.400 373.200 C 296.840 373.200,297.200 373.020,297.200 372.800 C 297.200 372.580,297.545 372.400,297.967 372.400 C 298.388 372.400,298.793 372.265,298.867 372.100 C 298.940 371.935,299.855 371.367,300.900 370.837 C 301.945 370.308,302.800 369.723,302.800 369.537 C 302.800 369.352,303.160 369.200,303.600 369.200 C 304.040 369.200,304.400 369.020,304.400 368.800 C 304.400 368.580,304.593 368.400,304.828 368.400 C 305.063 368.400,306.041 367.860,307.000 367.200 C 307.959 366.540,308.897 366.000,309.084 366.000 C 309.271 366.000,309.683 365.640,310.000 365.200 C 310.317 364.760,310.857 364.400,311.200 364.400 C 311.543 364.400,312.083 364.040,312.400 363.600 C 312.717 363.160,313.257 362.800,313.600 362.800 C 313.943 362.800,314.483 362.440,314.800 362.000 C 315.117 361.560,315.609 361.200,315.892 361.200 C 316.175 361.200,316.972 360.660,317.663 360.000 C 318.354 359.340,319.117 358.797,319.359 358.794 C 319.602 358.790,320.370 358.295,321.067 357.694 C 321.764 357.092,323.171 355.970,324.194 355.200 C 325.216 354.430,326.806 353.078,327.727 352.195 C 328.647 351.312,330.030 350.148,330.800 349.608 C 334.023 347.349,334.101 347.564,328.500 343.277 C 323.947 339.792,320.390 337.055,315.400 333.198 C 304.913 325.093,296.372 318.486,295.200 317.570 C 293.134 315.956,280.782 306.439,276.416 303.097 C 274.335 301.503,271.921 299.517,271.051 298.682 C 270.181 297.847,269.364 297.307,269.235 297.483 C 269.106 297.658,268.505 298.056,267.900 298.368 C 267.295 298.680,266.800 299.085,266.800 299.268 C 266.800 299.450,266.480 299.600,266.088 299.600 C 265.697 299.600,265.117 299.960,264.800 300.400 C 264.483 300.840,263.903 301.200,263.512 301.200 C 263.120 301.200,262.800 301.380,262.800 301.600 C 262.800 301.820,262.440 302.000,262.000 302.000 C 261.560 302.000,261.200 302.146,261.200 302.325 C 261.200 302.504,260.570 302.898,259.800 303.200 C 259.030 303.502,258.400 303.896,258.400 304.075 C 258.400 304.254,258.040 304.400,257.600 304.400 C 257.160 304.400,256.800 304.580,256.800 304.800 C 256.800 305.020,256.440 305.200,256.000 305.200 C 255.560 305.200,255.200 305.380,255.200 305.600 C 255.200 305.820,254.840 306.000,254.400 306.000 C 253.960 306.000,253.600 306.180,253.600 306.400 C 253.600 306.620,253.060 306.800,252.400 306.800 C 251.740 306.800,251.200 306.980,251.200 307.200 C 251.200 307.420,250.840 307.600,250.400 307.600 C 249.960 307.600,249.600 307.780,249.600 308.000 C 249.600 308.220,249.200 308.400,248.712 308.400 C 247.944 308.400,243.006 309.876,240.600 310.824 C 239.736 311.165,238.166 311.530,236.096 311.873 C 235.379 311.991,234.694 312.249,234.573 312.444 C 234.452 312.640,233.654 312.800,232.800 312.800 C 231.946 312.800,231.136 312.980,231.000 313.200 C 230.864 313.420,229.964 313.600,229.000 313.600 C 228.036 313.600,227.136 313.780,227.000 314.000 C 226.864 314.220,225.593 314.400,224.176 314.400 C 222.725 314.400,221.600 314.575,221.600 314.800 C 221.600 315.038,220.075 315.200,217.824 315.200 C 215.737 315.200,213.937 315.379,213.800 315.600 C 213.647 315.847,210.129 316.000,204.576 316.000 C 198.859 316.000,195.600 315.855,195.600 315.600 C 195.600 315.365,194.208 315.200,192.224 315.200 C 190.367 315.200,188.736 315.020,188.600 314.800 C 188.464 314.580,187.373 314.400,186.176 314.400 C 184.979 314.400,184.000 314.220,184.000 314.000 C 184.000 313.780,183.100 313.600,182.000 313.600 C 180.900 313.600,180.000 313.420,180.000 313.200 C 180.000 312.980,179.280 312.800,178.400 312.800 C 177.520 312.800,176.800 312.620,176.800 312.400 C 176.800 312.180,176.181 312.000,175.424 312.000 C 174.667 312.000,173.936 311.820,173.800 311.600 C 173.664 311.380,173.124 311.200,172.600 311.200 C 172.076 311.200,171.536 311.020,171.400 310.800 C 171.264 310.580,170.801 310.400,170.371 310.400 C 169.941 310.400,169.277 310.237,168.895 310.037 C 167.978 309.558,164.059 308.400,163.354 308.400 C 163.049 308.400,162.800 308.220,162.800 308.000 C 162.800 307.780,162.361 307.600,161.824 307.600 C 161.287 307.600,160.736 307.420,160.600 307.200 C 160.464 306.980,160.003 306.800,159.576 306.800 C 159.149 306.800,158.799 306.665,158.799 306.500 C 158.798 306.335,157.808 305.750,156.600 305.200 C 155.392 304.650,154.402 304.065,154.401 303.900 C 154.401 303.735,154.040 303.600,153.600 303.600 C 153.160 303.600,152.800 303.420,152.800 303.200 C 152.800 302.980,152.440 302.800,152.000 302.800 C 151.560 302.800,151.200 302.620,151.200 302.400 C 151.200 302.180,150.840 302.000,150.400 302.000 C 149.960 302.000,149.600 301.820,149.600 301.600 C 149.600 301.380,149.364 301.200,149.075 301.200 C 148.787 301.200,148.164 300.840,147.692 300.400 C 147.220 299.960,146.556 299.600,146.217 299.600 C 145.878 299.600,145.600 299.442,145.600 299.249 C 145.600 299.055,145.060 298.673,144.400 298.400 C 143.740 298.127,143.200 297.745,143.200 297.551 C 143.200 297.358,142.987 297.200,142.726 297.200 C 142.465 297.200,141.880 296.866,141.426 296.459 C 140.972 296.051,139.352 294.858,137.828 293.807 C 136.303 292.756,134.694 291.560,134.252 291.148 C 133.811 290.737,133.293 290.400,133.102 290.400 C 132.912 290.400,131.696 289.320,130.400 288.000 C 129.104 286.680,127.881 285.600,127.681 285.600 C 127.251 285.600,125.866 284.224,122.600 280.555 C 121.280 279.072,119.255 276.877,118.100 275.677 C 116.945 274.477,116.000 273.321,116.000 273.108 C 116.000 272.895,115.460 272.217,114.800 271.600 C 114.140 270.983,113.600 270.308,113.600 270.099 C 113.600 269.890,113.060 269.154,112.400 268.463 C 111.740 267.772,111.200 266.975,111.200 266.692 C 111.200 266.409,110.840 265.917,110.400 265.600 C 109.960 265.283,109.600 264.874,109.600 264.692 C 109.600 264.510,108.970 263.377,108.200 262.173 C 107.430 260.969,106.800 259.808,106.800 259.592 C 106.800 259.377,106.642 259.200,106.449 259.200 C 106.255 259.200,105.873 258.660,105.600 258.000 C 105.327 257.340,104.945 256.800,104.751 256.800 C 104.558 256.800,104.400 256.440,104.400 256.000 C 104.400 255.560,104.220 255.200,104.000 255.200 C 103.780 255.200,103.600 254.840,103.600 254.400 C 103.600 253.960,103.420 253.600,103.200 253.600 C 102.980 253.600,102.800 253.240,102.800 252.800 C 102.800 252.360,102.620 252.000,102.400 252.000 C 102.180 252.000,102.000 251.640,102.000 251.200 C 102.000 250.760,101.820 250.400,101.600 250.400 C 101.380 250.400,101.200 250.040,101.200 249.600 C 101.200 249.160,101.020 248.800,100.800 248.800 C 100.580 248.800,100.400 248.440,100.400 248.000 C 100.400 247.560,100.220 247.200,100.000 247.200 C 99.780 247.200,99.600 246.928,99.600 246.595 C 99.600 246.262,99.443 245.677,99.250 245.295 C 97.686 242.189,97.200 241.021,97.200 240.362 C 97.200 239.943,97.020 239.600,96.800 239.600 C 96.580 239.600,96.400 239.060,96.400 238.400 C 96.400 237.181,96.268 237.082,95.200 237.495 " stroke="none" fill="#34ab54" fill-rule="evenodd"></path><path id="path2" d="M192.800 6.400 C 192.800 6.646,190.800 6.800,187.600 6.800 C 184.400 6.800,182.400 6.954,182.400 7.200 C 182.400 7.431,181.133 7.600,179.400 7.600 C 177.750 7.600,176.400 7.754,176.400 7.943 C 176.400 8.131,175.005 8.399,173.300 8.537 C 169.743 8.825,168.720 8.962,165.400 9.591 C 164.080 9.842,162.324 10.145,161.497 10.265 C 160.671 10.386,159.895 10.645,159.774 10.842 C 159.652 11.039,158.854 11.200,158.000 11.200 C 157.146 11.200,156.336 11.380,156.200 11.600 C 156.064 11.820,155.434 12.000,154.800 12.000 C 154.166 12.000,153.536 12.180,153.400 12.400 C 153.264 12.620,152.634 12.800,152.000 12.800 C 151.366 12.800,150.736 12.980,150.600 13.200 C 150.464 13.420,149.834 13.600,149.200 13.600 C 148.566 13.600,147.936 13.780,147.800 14.000 C 147.664 14.220,147.034 14.400,146.400 14.400 C 145.766 14.400,145.136 14.580,145.000 14.800 C 144.864 15.020,144.313 15.200,143.776 15.200 C 143.239 15.200,142.800 15.380,142.800 15.600 C 142.800 15.820,142.260 16.000,141.600 16.000 C 140.940 16.000,140.400 16.180,140.400 16.400 C 140.400 16.620,139.860 16.800,139.200 16.800 C 138.540 16.800,138.000 16.980,138.000 17.200 C 138.000 17.420,137.561 17.600,137.024 17.600 C 136.487 17.600,135.936 17.780,135.800 18.000 C 135.664 18.220,135.203 18.400,134.776 18.400 C 134.349 18.400,134.000 18.580,134.000 18.800 C 134.000 19.020,133.460 19.200,132.800 19.200 C 132.140 19.200,131.600 19.380,131.600 19.600 C 131.600 19.820,131.240 20.000,130.800 20.000 C 130.360 20.000,130.000 20.180,130.000 20.400 C 130.000 20.620,129.658 20.800,129.241 20.800 C 128.823 20.800,127.455 21.340,126.200 22.000 C 124.945 22.660,123.577 23.200,123.159 23.200 C 122.742 23.200,122.400 23.380,122.400 23.600 C 122.400 23.820,122.040 24.000,121.600 24.000 C 121.160 24.000,120.800 24.180,120.800 24.400 C 120.800 24.620,120.522 24.800,120.182 24.800 C 119.354 24.800,112.227 28.253,110.128 29.671 C 109.208 30.292,108.263 30.800,108.028 30.800 C 107.793 30.800,107.600 30.980,107.600 31.200 C 107.600 31.420,107.240 31.600,106.800 31.600 C 106.360 31.600,106.000 31.780,106.000 32.000 C 106.000 32.220,105.680 32.400,105.288 32.400 C 104.897 32.400,104.317 32.760,104.000 33.200 C 103.683 33.640,103.103 34.000,102.712 34.000 C 102.320 34.000,102.000 34.180,102.000 34.400 C 102.000 34.620,101.680 34.800,101.288 34.800 C 100.897 34.800,100.317 35.160,100.000 35.600 C 99.683 36.040,99.143 36.400,98.800 36.400 C 98.457 36.400,97.917 36.760,97.600 37.200 C 97.283 37.640,96.743 38.000,96.400 38.000 C 96.057 38.000,95.517 38.360,95.200 38.800 C 94.883 39.240,94.380 39.600,94.083 39.600 C 93.406 39.600,92.353 40.619,92.686 40.952 C 92.822 41.089,92.543 41.200,92.067 41.200 C 91.590 41.200,91.200 41.339,91.200 41.509 C 91.200 41.679,90.525 42.172,89.700 42.604 C 88.875 43.036,87.909 43.706,87.553 44.094 C 87.197 44.483,86.740 44.800,86.537 44.800 C 86.334 44.800,85.372 45.520,84.400 46.400 C 83.428 47.280,82.472 48.000,82.276 48.000 C 82.081 48.000,81.444 48.502,80.860 49.115 C 80.277 49.729,79.170 50.666,78.400 51.199 C 77.021 52.152,74.819 54.379,74.806 54.832 C 74.803 54.960,74.314 55.320,73.720 55.632 C 71.480 56.810,58.400 69.721,58.400 70.754 C 58.400 70.961,57.320 72.227,56.000 73.568 C 54.680 74.908,53.600 76.094,53.600 76.202 C 53.600 76.310,52.880 77.141,52.000 78.048 C 51.120 78.955,50.400 79.873,50.400 80.088 C 50.400 80.303,49.860 80.983,49.200 81.600 C 48.540 82.217,48.000 82.892,48.000 83.101 C 48.000 83.310,47.460 84.046,46.800 84.737 C 46.140 85.428,45.600 86.183,45.600 86.415 C 45.600 86.647,45.150 87.286,44.600 87.836 C 44.050 88.386,43.600 88.981,43.600 89.157 C 43.600 89.333,43.240 89.893,42.800 90.400 C 42.360 90.907,42.000 91.665,42.000 92.085 C 42.000 92.504,41.820 92.736,41.600 92.600 C 41.380 92.464,41.200 92.633,41.200 92.976 C 41.200 93.319,41.020 93.600,40.800 93.600 C 40.580 93.600,40.400 93.870,40.400 94.200 C 40.400 94.530,40.220 94.800,40.000 94.800 C 39.780 94.800,39.600 95.070,39.600 95.400 C 39.600 95.730,39.420 96.000,39.200 96.000 C 38.980 96.000,38.800 96.270,38.800 96.600 C 38.800 96.930,38.620 97.200,38.400 97.200 C 38.180 97.200,38.000 97.520,38.000 97.912 C 38.000 98.303,37.640 98.883,37.200 99.200 C 36.760 99.517,36.400 100.097,36.400 100.488 C 36.400 100.880,36.220 101.200,36.000 101.200 C 35.780 101.200,35.600 101.478,35.600 101.817 C 35.600 102.156,35.240 102.820,34.800 103.292 C 34.360 103.764,34.000 104.387,34.000 104.675 C 34.000 104.964,33.820 105.200,33.600 105.200 C 33.380 105.200,33.200 105.560,33.200 106.000 C 33.200 106.440,33.020 106.800,32.800 106.800 C 32.580 106.800,32.400 107.160,32.400 107.600 C 32.400 108.040,32.264 108.400,32.098 108.400 C 31.931 108.400,31.541 108.985,31.230 109.700 C 30.919 110.415,30.533 111.090,30.372 111.200 C 29.383 111.877,30.012 112.867,32.800 115.022 C 34.450 116.298,36.880 118.178,38.200 119.202 C 39.520 120.225,41.514 121.768,42.630 122.631 C 43.747 123.494,46.522 125.640,48.797 127.400 C 52.764 130.470,55.602 132.653,58.416 134.800 C 59.137 135.350,60.758 136.610,62.017 137.600 C 63.277 138.590,66.069 140.750,68.222 142.400 C 70.375 144.050,73.527 146.480,75.226 147.800 C 96.602 164.408,96.400 164.276,96.400 161.557 C 96.400 160.921,96.580 160.400,96.800 160.400 C 97.020 160.400,97.200 160.040,97.200 159.600 C 97.200 159.160,97.380 158.800,97.600 158.800 C 97.820 158.800,98.000 158.361,98.000 157.824 C 98.000 157.287,98.180 156.736,98.400 156.600 C 98.620 156.464,98.800 156.003,98.800 155.576 C 98.800 155.149,98.980 154.800,99.200 154.800 C 99.420 154.800,99.600 154.350,99.600 153.800 C 99.600 153.250,99.780 152.800,100.000 152.800 C 100.220 152.800,100.400 152.440,100.400 152.000 C 100.400 151.560,100.580 151.200,100.800 151.200 C 101.020 151.200,101.200 150.840,101.200 150.400 C 101.200 149.960,101.380 149.600,101.600 149.600 C 101.820 149.600,102.000 149.240,102.000 148.800 C 102.000 148.360,102.180 148.000,102.400 148.000 C 102.620 148.000,102.800 147.640,102.800 147.200 C 102.800 146.760,102.980 146.400,103.200 146.400 C 103.420 146.400,103.600 146.040,103.600 145.600 C 103.600 145.160,103.780 144.800,104.000 144.800 C 104.220 144.800,104.400 144.607,104.400 144.372 C 104.400 144.137,104.940 143.159,105.600 142.200 C 106.260 141.241,106.800 140.322,106.800 140.159 C 106.800 139.996,107.043 139.579,107.341 139.231 C 107.638 138.884,108.313 137.790,108.841 136.800 C 109.368 135.810,110.115 134.709,110.500 134.353 C 110.885 133.997,111.200 133.484,111.200 133.214 C 111.200 132.943,111.740 132.217,112.400 131.600 C 113.060 130.983,113.600 130.263,113.600 130.000 C 113.600 129.737,114.110 129.044,114.734 128.460 C 115.358 127.877,115.943 127.187,116.034 126.927 C 116.594 125.330,131.460 110.412,133.615 109.284 C 134.157 109.001,135.174 108.281,135.877 107.684 C 136.579 107.088,138.343 105.790,139.796 104.800 C 141.250 103.810,142.812 102.690,143.267 102.312 C 143.723 101.933,144.434 101.516,144.848 101.385 C 145.261 101.254,145.600 100.978,145.600 100.773 C 145.600 100.568,145.878 100.400,146.217 100.400 C 146.556 100.400,147.220 100.040,147.692 99.600 C 148.164 99.160,148.787 98.800,149.075 98.800 C 149.364 98.800,149.600 98.620,149.600 98.400 C 149.600 98.180,149.960 98.000,150.400 98.000 C 150.840 98.000,151.200 97.820,151.200 97.600 C 151.200 97.380,151.560 97.200,152.000 97.200 C 152.440 97.200,152.800 97.020,152.800 96.800 C 152.800 96.580,153.160 96.400,153.600 96.400 C 154.040 96.400,154.401 96.265,154.401 96.100 C 154.402 95.935,155.392 95.350,156.600 94.800 C 157.808 94.250,158.798 93.665,158.799 93.500 C 158.799 93.335,159.149 93.200,159.576 93.200 C 160.003 93.200,160.464 93.020,160.600 92.800 C 160.736 92.580,161.287 92.400,161.824 92.400 C 162.361 92.400,162.800 92.236,162.800 92.035 C 162.800 91.834,163.565 91.544,164.500 91.390 C 165.435 91.236,166.380 90.982,166.600 90.827 C 166.820 90.671,167.810 90.314,168.800 90.033 C 169.790 89.752,170.913 89.360,171.295 89.161 C 171.677 88.962,172.341 88.800,172.771 88.800 C 173.201 88.800,173.664 88.620,173.800 88.400 C 173.936 88.180,174.667 88.000,175.424 88.000 C 176.181 88.000,176.800 87.820,176.800 87.600 C 176.800 87.380,177.520 87.200,178.400 87.200 C 179.280 87.200,180.000 87.020,180.000 86.800 C 180.000 86.580,180.799 86.400,181.776 86.400 C 182.753 86.400,183.664 86.220,183.800 86.000 C 183.936 85.780,185.016 85.600,186.200 85.600 C 187.384 85.600,188.464 85.420,188.600 85.200 C 188.736 84.980,190.367 84.800,192.224 84.800 C 194.208 84.800,195.600 84.635,195.600 84.400 C 195.600 84.146,198.725 84.000,204.176 84.000 C 209.463 84.000,212.848 84.153,213.000 84.400 C 213.136 84.620,214.756 84.800,216.600 84.800 C 218.444 84.800,220.064 84.980,220.200 85.200 C 220.336 85.420,221.427 85.600,222.624 85.600 C 223.821 85.600,224.800 85.780,224.800 86.000 C 224.800 86.220,225.599 86.400,226.576 86.400 C 227.553 86.400,228.452 86.561,228.574 86.758 C 228.695 86.955,229.471 87.218,230.297 87.342 C 233.878 87.883,234.800 88.109,234.800 88.444 C 234.800 88.640,235.193 88.800,235.673 88.800 C 236.558 88.800,240.856 90.142,242.051 90.792 C 242.409 90.986,243.354 91.268,244.151 91.417 C 244.948 91.567,245.600 91.849,245.600 92.045 C 245.600 92.240,246.140 92.400,246.800 92.400 C 247.460 92.400,248.000 92.580,248.000 92.800 C 248.000 93.020,248.360 93.200,248.800 93.200 C 249.240 93.200,249.600 93.380,249.600 93.600 C 249.600 93.820,249.960 94.000,250.400 94.000 C 250.840 94.000,251.200 94.180,251.200 94.400 C 251.200 94.620,251.560 94.800,252.000 94.800 C 252.440 94.800,252.800 94.980,252.800 95.200 C 252.800 95.420,253.160 95.600,253.600 95.600 C 254.040 95.600,254.400 95.780,254.400 96.000 C 254.400 96.220,254.760 96.400,255.200 96.400 C 255.640 96.400,256.000 96.580,256.000 96.800 C 256.000 97.020,256.278 97.200,256.617 97.200 C 256.956 97.200,257.589 97.531,258.023 97.936 C 258.458 98.341,259.305 98.926,259.907 99.236 C 260.508 99.546,261.349 100.115,261.775 100.500 C 262.202 100.885,262.787 101.200,263.075 101.200 C 263.364 101.200,263.600 101.350,263.600 101.532 C 263.600 101.715,264.095 102.119,264.700 102.430 C 265.305 102.740,266.091 103.311,266.447 103.697 C 266.803 104.084,267.253 104.400,267.447 104.400 C 267.641 104.401,268.340 104.871,269.000 105.446 C 269.660 106.021,270.650 106.784,271.200 107.142 C 272.720 108.132,273.075 108.432,275.415 110.700 C 276.892 112.131,277.911 112.800,278.615 112.800 C 279.809 112.800,334.800 58.215,334.800 57.029 C 334.800 56.290,332.901 54.281,330.800 52.799 C 330.030 52.255,328.655 51.088,327.745 50.205 C 326.835 49.322,325.070 47.790,323.822 46.800 C 322.575 45.810,321.080 44.605,320.501 44.122 C 319.922 43.639,318.853 42.924,318.124 42.531 C 317.396 42.139,316.800 41.679,316.800 41.509 C 316.800 41.339,316.557 41.200,316.259 41.200 C 315.962 41.200,315.154 40.660,314.463 40.000 C 313.772 39.340,312.975 38.800,312.692 38.800 C 312.409 38.800,311.917 38.440,311.600 38.000 C 311.283 37.560,310.769 37.200,310.459 37.200 C 310.148 37.200,309.603 36.884,309.247 36.497 C 308.891 36.111,308.108 35.542,307.507 35.233 C 306.905 34.925,306.058 34.341,305.623 33.936 C 305.189 33.531,304.556 33.200,304.217 33.200 C 303.878 33.200,303.600 33.020,303.600 32.800 C 303.600 32.580,303.330 32.400,303.000 32.400 C 302.670 32.400,302.400 32.220,302.400 32.000 C 302.400 31.780,302.130 31.600,301.800 31.600 C 301.470 31.600,301.200 31.420,301.200 31.200 C 301.200 30.980,300.840 30.800,300.400 30.800 C 299.960 30.800,299.600 30.620,299.600 30.400 C 299.600 30.180,299.240 30.000,298.800 30.000 C 298.360 30.000,298.000 29.856,298.000 29.679 C 298.000 29.378,290.551 25.517,287.700 24.341 C 286.985 24.046,286.400 23.669,286.400 23.502 C 286.400 23.336,286.051 23.200,285.624 23.200 C 285.197 23.200,284.736 23.020,284.600 22.800 C 284.464 22.580,283.913 22.400,283.376 22.400 C 282.839 22.400,282.400 22.220,282.400 22.000 C 282.400 21.780,282.040 21.600,281.600 21.600 C 281.160 21.600,280.800 21.420,280.800 21.200 C 280.800 20.980,280.440 20.800,280.000 20.800 C 279.560 20.800,279.200 20.620,279.200 20.400 C 279.200 20.180,278.660 20.000,278.000 20.000 C 277.340 20.000,276.800 19.820,276.800 19.600 C 276.800 19.380,276.440 19.200,276.000 19.200 C 275.560 19.200,275.200 19.020,275.200 18.800 C 275.200 18.580,274.761 18.400,274.224 18.400 C 273.687 18.400,273.136 18.220,273.000 18.000 C 272.864 17.780,272.313 17.600,271.776 17.600 C 271.239 17.600,270.800 17.420,270.800 17.200 C 270.800 16.980,270.361 16.800,269.824 16.800 C 269.287 16.800,268.736 16.620,268.600 16.400 C 268.464 16.180,267.924 16.000,267.400 16.000 C 266.876 16.000,266.336 15.820,266.200 15.600 C 266.064 15.380,265.524 15.200,265.000 15.200 C 264.476 15.200,263.936 15.020,263.800 14.800 C 263.664 14.580,263.023 14.400,262.376 14.400 C 261.729 14.400,261.200 14.220,261.200 14.000 C 261.200 13.780,260.660 13.600,260.000 13.600 C 259.340 13.600,258.800 13.420,258.800 13.200 C 258.800 12.980,258.181 12.800,257.424 12.800 C 256.667 12.800,255.936 12.620,255.800 12.400 C 255.664 12.180,254.944 12.000,254.200 12.000 C 253.456 12.000,252.736 11.820,252.600 11.600 C 252.464 11.380,251.744 11.200,251.000 11.200 C 250.256 11.200,249.548 11.039,249.426 10.842 C 249.305 10.645,248.529 10.386,247.703 10.265 C 246.876 10.145,245.120 9.842,243.800 9.591 C 240.045 8.879,239.221 8.771,235.700 8.528 C 233.885 8.402,232.400 8.142,232.400 7.950 C 232.400 7.757,230.960 7.600,229.200 7.600 C 227.333 7.600,226.000 7.433,226.000 7.200 C 226.000 6.956,224.141 6.800,221.224 6.800 C 218.471 6.800,216.342 6.631,216.200 6.400 C 215.862 5.853,192.800 5.853,192.800 6.400 " stroke="none" fill="#ec4434" fill-rule="evenodd"></path><path id="path3" d="M29.200 113.600 C 29.200 114.040,29.020 114.400,28.800 114.400 C 28.580 114.400,28.400 114.760,28.400 115.200 C 28.400 115.640,28.220 116.000,28.000 116.000 C 27.780 116.000,27.600 116.360,27.600 116.800 C 27.600 117.240,27.420 117.600,27.200 117.600 C 26.980 117.600,26.800 117.930,26.800 118.333 C 26.800 118.737,26.672 119.195,26.515 119.352 C 26.073 119.794,24.801 123.317,24.800 124.100 C 24.800 124.485,24.620 124.800,24.400 124.800 C 24.180 124.800,24.000 125.160,24.000 125.600 C 24.000 126.040,23.820 126.400,23.600 126.400 C 23.380 126.400,23.200 126.749,23.200 127.176 C 23.200 127.603,23.020 128.064,22.800 128.200 C 22.580 128.336,22.400 128.797,22.400 129.224 C 22.400 129.651,22.220 130.000,22.000 130.000 C 21.780 130.000,21.600 130.540,21.600 131.200 C 21.600 131.860,21.420 132.400,21.200 132.400 C 20.980 132.400,20.800 132.762,20.800 133.205 C 20.800 133.648,20.620 134.368,20.400 134.805 C 20.180 135.242,19.820 135.958,19.600 136.395 C 19.380 136.832,19.200 137.552,19.200 137.995 C 19.200 138.438,19.020 138.800,18.800 138.800 C 18.580 138.800,18.400 139.520,18.400 140.400 C 18.400 141.280,18.220 142.000,18.000 142.000 C 17.780 142.000,17.600 142.450,17.600 143.000 C 17.600 143.550,17.440 144.000,17.244 144.000 C 16.907 144.000,16.789 144.451,16.167 148.104 C 16.027 148.931,15.751 149.706,15.556 149.827 C 15.360 149.948,15.200 150.667,15.200 151.424 C 15.200 152.181,15.020 152.800,14.800 152.800 C 14.580 152.800,14.400 153.509,14.400 154.376 C 14.400 155.243,14.220 156.064,14.000 156.200 C 13.780 156.336,13.600 157.031,13.600 157.744 C 13.600 158.457,13.437 159.211,13.239 159.420 C 13.040 159.629,12.776 160.610,12.651 161.600 C 12.067 166.250,11.931 167.053,11.595 167.800 C 11.398 168.240,11.143 169.590,11.029 170.800 C 10.915 172.010,10.638 174.440,10.415 176.200 C 8.091 194.490,8.670 215.683,12.000 234.200 C 12.237 235.520,12.533 237.320,12.657 238.200 C 12.781 239.080,13.044 239.971,13.241 240.180 C 13.438 240.389,13.600 241.334,13.600 242.280 C 13.600 243.226,13.780 244.000,14.000 244.000 C 14.220 244.000,14.400 244.720,14.400 245.600 C 14.400 246.480,14.580 247.200,14.800 247.200 C 15.020 247.200,15.200 247.920,15.200 248.800 C 15.200 249.680,15.380 250.400,15.600 250.400 C 15.820 250.400,16.000 250.929,16.000 251.576 C 16.000 252.223,16.180 252.864,16.400 253.000 C 16.620 253.136,16.800 253.766,16.800 254.400 C 16.800 255.034,16.980 255.664,17.200 255.800 C 17.420 255.936,17.600 256.487,17.600 257.024 C 17.600 257.561,17.780 258.000,18.000 258.000 C 18.220 258.000,18.400 258.720,18.400 259.600 C 18.400 260.480,18.580 261.200,18.800 261.200 C 19.020 261.200,19.200 261.562,19.200 262.005 C 19.200 262.448,19.408 263.213,19.662 263.705 C 20.658 265.631,20.800 266.017,20.800 266.795 C 20.800 267.238,20.980 267.600,21.200 267.600 C 21.420 267.600,21.600 268.151,21.600 268.824 C 21.600 269.537,21.767 269.944,22.000 269.800 C 22.226 269.660,22.400 269.988,22.400 270.553 C 22.400 271.103,22.580 271.664,22.800 271.800 C 23.020 271.936,23.200 272.397,23.200 272.824 C 23.200 273.251,23.380 273.600,23.600 273.600 C 23.820 273.600,24.000 273.960,24.000 274.400 C 24.000 274.840,24.180 275.200,24.400 275.200 C 24.620 275.200,24.800 275.652,24.800 276.205 C 24.800 276.758,24.968 277.523,25.174 277.905 C 26.024 279.482,26.800 281.355,26.800 281.828 C 26.800 282.106,26.942 282.393,27.115 282.467 C 27.288 282.540,27.934 283.640,28.550 284.912 L 29.671 287.224 31.399 285.912 C 37.856 281.010,41.060 278.553,41.454 278.203 C 41.703 277.982,43.953 276.224,46.454 274.297 C 48.954 272.371,53.268 269.041,56.040 266.897 C 58.812 264.754,61.673 262.550,62.398 262.000 C 63.817 260.924,73.132 253.749,76.938 250.800 C 79.603 248.735,85.251 244.384,86.956 243.082 C 87.591 242.597,89.660 240.985,91.553 239.500 C 93.446 238.015,95.131 236.800,95.297 236.800 C 95.464 236.800,95.600 236.350,95.600 235.800 C 95.600 235.250,95.420 234.800,95.200 234.800 C 94.980 234.800,94.800 234.260,94.800 233.600 C 94.800 232.940,94.620 232.400,94.400 232.400 C 94.180 232.400,94.000 231.781,94.000 231.024 C 94.000 230.267,93.820 229.536,93.600 229.400 C 93.380 229.264,93.200 228.533,93.200 227.776 C 93.200 227.019,93.020 226.400,92.800 226.400 C 92.580 226.400,92.400 225.680,92.400 224.800 C 92.400 223.920,92.241 223.200,92.048 223.200 C 91.854 223.200,91.574 221.445,91.427 219.300 C 91.279 217.155,90.999 214.950,90.805 214.400 C 89.907 211.856,89.638 197.929,90.346 190.600 C 91.503 178.625,91.729 176.800,92.051 176.800 C 92.243 176.800,92.400 176.091,92.400 175.224 C 92.400 174.357,92.580 173.536,92.800 173.400 C 93.020 173.264,93.200 172.634,93.200 172.000 C 93.200 171.366,93.380 170.736,93.600 170.600 C 93.820 170.464,94.000 169.733,94.000 168.976 C 94.000 168.219,94.180 167.600,94.400 167.600 C 94.620 167.600,94.800 167.060,94.800 166.400 C 94.800 165.740,94.980 165.200,95.200 165.200 C 96.385 165.200,95.476 163.247,93.700 161.979 C 92.655 161.233,88.830 158.322,85.200 155.510 C 81.570 152.698,76.800 149.012,74.600 147.318 C 67.410 141.782,64.365 139.428,62.028 137.600 C 60.762 136.610,59.137 135.350,58.416 134.800 C 55.602 132.653,52.764 130.470,48.797 127.400 C 46.522 125.640,43.747 123.494,42.630 122.631 C 41.514 121.768,39.520 120.225,38.200 119.202 C 28.929 112.015,29.200 112.184,29.200 113.600 " stroke="none" fill="#fbbb0c" fill-rule="evenodd"></path><path id="path4" d="M91.553 239.500 C 89.660 240.985,87.591 242.597,86.956 243.082 C 85.251 244.384,79.603 248.735,76.938 250.800 C 73.132 253.749,63.817 260.924,62.398 262.000 C 61.673 262.550,58.812 264.754,56.040 266.897 C 53.268 269.041,48.954 272.371,46.454 274.297 C 43.953 276.224,41.703 277.980,41.454 278.200 C 41.204 278.420,39.920 279.410,38.600 280.400 C 36.417 282.037,30.436 286.679,30.033 287.047 C 29.942 287.131,30.055 287.200,30.285 287.200 C 30.515 287.200,32.855 285.535,35.485 283.500 C 38.115 281.465,40.868 279.350,41.602 278.800 C 42.336 278.250,44.301 276.718,45.969 275.396 C 47.636 274.074,50.080 272.184,51.400 271.197 C 52.720 270.210,53.890 269.305,54.000 269.187 C 54.204 268.967,58.863 265.377,64.592 261.025 C 66.348 259.691,68.058 258.383,68.392 258.119 C 69.416 257.308,74.147 253.596,75.073 252.877 C 75.553 252.505,77.598 250.940,79.619 249.400 C 81.639 247.860,84.323 245.790,85.582 244.800 C 86.842 243.810,88.473 242.550,89.206 242.000 C 89.940 241.450,91.486 240.235,92.643 239.300 C 93.800 238.365,94.938 237.600,95.173 237.600 C 95.408 237.600,95.600 237.420,95.600 237.200 C 95.600 236.454,95.001 236.795,91.553 239.500 " stroke="none" fill="#8cac44" fill-rule="evenodd"></path></g></svg>